<svg width="44" height="44" viewBox="0 0 44 44" fill="none" xmlns="http://www.w3.org/2000/svg">
<path fill-rule="evenodd" clip-rule="evenodd" d="M39.9996 22.0515V9.7436C39.9996 7.15913 38.9739 4.68103 37.1463 2.8534C35.3187 1.02577 32.8406 0 30.2561 0H9.74351C7.15906 0 4.68099 1.02577 2.85337 2.8534C1.02576 4.68103 0 7.15913 0 9.7436V30.2564C0 32.8409 1.02576 35.319 2.85337 37.1466C4.68099 38.9742 7.15906 40 9.74351 40H22.0513C22.9005 40 23.5897 39.3108 23.5897 38.4615C23.5897 37.6123 22.9005 36.923 22.0513 36.923H9.74351C7.97533 36.923 6.27888 36.2214 5.02956 34.97C3.77821 33.7207 3.07658 32.0242 3.07658 30.256V9.74325C3.07658 7.97505 3.77817 6.27859 5.02956 5.02925C6.27888 3.7779 7.97533 3.07626 9.74351 3.07626H30.2561C32.0243 3.07626 33.7208 3.77785 34.9701 5.02925C36.2214 6.27859 36.9231 7.97505 36.9231 9.74325V22.0511C36.9231 22.9004 37.6123 23.5896 38.4615 23.5896C39.3108 23.5896 40 22.9004 40 22.0511L39.9996 22.0515Z" fill="#087093"/>
<path fill-rule="evenodd" clip-rule="evenodd" d="M9.95131 11.5237H16.237C17.1045 11.5237 17.8085 10.8197 17.8085 9.95229C17.8085 9.08484 17.1045 8.38086 16.237 8.38086H9.95131C9.08387 8.38086 8.37988 9.08484 8.37988 9.95229C8.37988 10.8197 9.08387 11.5237 9.95131 11.5237Z" fill="#087093"/>
<path fill-rule="evenodd" clip-rule="evenodd" d="M9.95131 19.6666H26.7136C27.581 19.6666 28.285 18.9626 28.285 18.0952C28.285 17.2277 27.581 16.5237 26.7136 16.5237H9.95131C9.08387 16.5237 8.37988 17.2277 8.37988 18.0952C8.37988 18.9626 9.08387 19.6666 9.95131 19.6666Z" fill="#087093"/>
<path fill-rule="evenodd" clip-rule="evenodd" d="M9.95131 27.8095H18.3322C19.1996 27.8095 19.9036 27.1055 19.9036 26.2381C19.9036 25.3706 19.1996 24.6666 18.3322 24.6666H9.95131C9.08387 24.6666 8.37988 25.3706 8.37988 26.2381C8.37988 27.1055 9.08387 27.8095 9.95131 27.8095Z" fill="#087093"/>
<path d="M27.8101 26.055L42.9693 30.3851C43.5477 30.5498 43.9584 31.0616 43.9968 31.6611C44.0351 32.2621 43.6914 32.8205 43.1386 33.0579L37.4885 35.4794L43.5834 41.5743C44.1389 42.1298 44.1389 43.0282 43.5834 43.5837C43.3062 43.8609 42.9425 44 42.5786 44C42.2149 44 41.8509 43.8609 41.5738 43.5837L35.4789 37.4888L33.0573 43.1389C32.8331 43.6646 32.3175 44 31.7531 44C31.7233 44 31.6933 43.9986 31.6635 43.9971C31.0626 43.9602 30.5522 43.548 30.3875 42.9681L26.0548 27.8097C25.9126 27.3137 26.0518 26.7793 26.4173 26.4141C26.7825 26.0492 27.318 25.9127 27.8099 26.0549L27.8101 26.055ZM32.0206 38.3458L33.6817 34.4678C33.6817 34.4663 33.6832 34.4648 33.6832 34.4636L33.693 34.441C33.8367 34.1056 34.1037 33.837 34.4391 33.6949L34.4647 33.6833H34.4662L38.3457 32.0192L29.4898 29.4898L32.0206 38.3458Z" fill="#087093"/>
</svg>
