<svg width="45" height="44" viewBox="0 0 45 44" fill="none" xmlns="http://www.w3.org/2000/svg">
<path d="M29.803 13.9246C33.7042 13.9246 36.8785 17.0988 36.8785 21.0001C36.8785 24.9016 33.7043 28.0755 29.803 28.0755C25.9017 28.0755 22.7275 24.9014 22.7275 21.0001C22.7275 17.0985 25.9017 13.9246 29.803 13.9246ZM20.1387 21.0001C20.1387 26.3288 24.4737 30.6644 29.803 30.6644C35.1317 30.6644 39.4673 26.3291 39.4673 21.0001C39.4673 15.6713 35.1323 11.3358 29.803 11.3358C24.4739 11.3361 20.1387 15.6711 20.1387 21.0001Z" fill="#FC4461"/>
<path d="M29.3337 23.7747V21.4249C28.6029 21.2158 28.0671 20.8991 27.7263 20.475C27.3849 20.0513 27.2146 19.5367 27.2146 18.9314C27.2146 18.3189 27.4074 17.8044 27.7933 17.3878C28.1792 16.9715 28.6925 16.7312 29.3341 16.6673V16.1083H30.1456V16.6673C30.7403 16.7387 31.2135 16.9415 31.5653 17.2751C31.9168 17.6091 32.1415 18.0557 32.2385 18.6156L30.8226 18.8049C30.7343 18.3614 30.509 18.0606 30.1456 17.9029V20.0956C31.0436 20.3385 31.6558 20.6536 31.9825 21.0405C32.3096 21.4273 32.4729 21.9234 32.4729 22.5293C32.4729 23.2056 32.2673 23.7762 31.8564 24.2394C31.4451 24.7032 30.8749 24.9902 30.1459 25.0998V26.1461H29.3344V25.1176C28.6893 25.0397 28.1651 24.8015 27.7623 24.4022C27.3589 24.0028 27.1013 23.4385 26.9893 22.7099L28.4505 22.5384C28.5103 22.8354 28.622 23.0914 28.786 23.3064C28.9497 23.5227 29.1325 23.6786 29.3337 23.7747ZM29.3337 17.8945C29.114 17.9643 28.94 18.0888 28.8123 18.2685C28.6846 18.4478 28.6211 18.6459 28.6211 18.8625C28.6211 19.0606 28.679 19.2447 28.7957 19.4146C28.9122 19.5846 29.0915 19.7223 29.3337 19.8268V17.8945ZM30.1456 23.8652C30.426 23.8051 30.6558 23.6714 30.8339 23.4636C31.0123 23.2564 31.1018 23.0123 31.1018 22.7319C31.1018 22.4815 31.0267 22.2655 30.8761 22.0843C30.7259 21.9031 30.4827 21.7638 30.1456 21.6668V23.8652Z" fill="#FC4461"/>
<path d="M6.40666 36.5406H30.2229L28.9288 35.2464V39.1508C28.9288 40.3974 27.9147 41.4114 26.6681 41.4114H9.96111C8.71449 41.4114 7.70047 40.3974 7.70047 39.1508V4.84898C7.70047 3.60268 8.71449 2.58866 9.96111 2.58866H26.6681C27.9144 2.58866 28.9284 3.60268 28.9284 4.84898V7.11771L30.2226 5.82358H6.40634V8.41224H31.5165V4.84898C31.5165 2.17523 29.3414 0 26.6676 0H9.96055C7.2868 0 5.11133 2.17515 5.11133 4.84898V39.1508C5.11133 41.8245 7.28648 44 9.96031 44H26.6673C29.3411 44 31.5165 41.8248 31.5165 39.1508V33.9522H30.2224L6.40618 33.9525L6.40666 36.5406Z" fill="#FC4461"/>
</svg>
