<svg width="45" height="44" viewBox="0 0 45 44" fill="none" xmlns="http://www.w3.org/2000/svg">
<path d="M42.4108 2.14496C41.0351 0.771991 39.1715 0.000707032 37.2278 0H7.89036C5.94673 0 4.08317 0.772283 2.70878 2.14628C1.33476 3.52067 0.5625 5.38423 0.5625 7.32786V13.1982C0.5625 13.5883 0.717508 13.9625 0.993348 14.2384C1.26953 14.5142 1.64342 14.6692 2.03357 14.6692H43.0847C43.4748 14.6692 43.8487 14.5142 44.125 14.2384C44.4008 13.9626 44.5558 13.5883 44.5558 13.1982V7.32786C44.5551 5.38423 43.7839 3.52067 42.4108 2.14487L42.4108 2.14496ZM4.78339 4.22081C5.60608 3.39398 6.72393 2.92897 7.89045 2.92862H37.2279C38.3937 2.93207 39.5105 3.39675 40.3346 4.22116C41.159 5.04522 41.6237 6.16205 41.6271 7.32786V11.7271H3.49067V7.32786C3.49413 6.16205 3.95846 5.0452 4.78286 4.22081H4.78339Z" fill="#2C9AFF"/>
<path d="M43.0849 17.5972C42.6958 17.5972 42.323 17.7526 42.0495 18.0288C41.7758 18.3053 41.6239 18.6792 41.6273 19.0683V36.6654C41.6239 37.8312 41.1592 38.9481 40.3348 39.7721C39.5107 40.5965 38.3939 41.0612 37.2281 41.0647H31.3029L30.9729 35.263L31.2753 35.428C31.5535 35.5834 31.8746 35.6431 32.1902 35.5986C32.5054 35.5537 32.7974 35.407 33.0215 35.1809L37.6817 30.465C37.9082 30.2413 38.0549 29.9493 38.0998 29.6341C38.1443 29.3185 38.0846 28.9975 37.9292 28.7192L34.3137 22.2302C33.4195 20.6159 31.945 19.4021 30.1892 18.8345L26.6972 17.6659C26.3091 17.5423 25.8872 17.582 25.5289 17.776C25.1719 17.9755 24.9133 18.3139 24.8139 18.7105L24.5526 19.7417C24.3699 20.3331 23.9422 20.8175 23.3777 21.0719C22.8136 21.3264 22.1674 21.3264 21.6033 21.0719C21.0388 20.8175 20.611 20.3331 20.4284 19.7417L20.1671 18.7243C20.0677 18.3276 19.8091 17.9893 19.4521 17.7894C19.0934 17.5971 18.6719 17.5574 18.2835 17.6796L14.7915 18.8483C13.037 19.4183 11.5636 20.6314 10.6674 22.244L7.13396 28.7192C6.98551 29.0029 6.93477 29.3278 6.98966 29.6433C7.0442 29.9589 7.20128 30.2478 7.43673 30.465L12.1522 35.1805V35.1808C12.3759 35.4069 12.668 35.5537 12.9835 35.5985C13.2987 35.6431 13.6198 35.5833 13.8981 35.428L14.2005 35.263L13.8566 41.0646H7.89034C6.72453 41.0612 5.60768 40.5965 4.78364 39.7721C3.95923 38.948 3.49454 37.8312 3.49109 36.6654V19.0682C3.53114 18.6553 3.39478 18.2445 3.11617 17.9376C2.83723 17.6303 2.44159 17.455 2.02699 17.455C1.61202 17.455 1.21639 17.6303 0.937453 17.9376C0.658856 18.2445 0.522488 18.6553 0.562532 19.0682V36.6654C0.562532 38.609 1.33481 40.4726 2.70882 41.8469C4.0832 43.221 5.94676 43.9932 7.89039 43.9932H37.2278C39.1714 43.9932 41.035 43.2209 42.4094 41.8469C43.7834 40.4726 44.5557 38.609 44.5557 36.6654V19.0682C44.5557 18.6781 44.4007 18.3039 44.1248 18.028C43.8486 17.7522 43.4747 17.5971 43.0846 17.5971L43.0849 17.5972ZM16.0427 27.9632C15.6553 27.937 15.2735 28.0678 14.9836 28.3267C14.6939 28.5853 14.5206 28.9499 14.503 29.3379L14.3107 31.7987L13.3482 32.3348L10.1862 29.1729L13.2519 23.6737C13.7843 22.7077 14.664 21.9804 15.7131 21.6392L17.7203 20.9657V20.9653C18.1815 22.3111 19.1854 23.4019 20.488 23.9736C21.7905 24.5454 23.273 24.5454 24.5758 23.9736C25.8784 23.4019 26.8824 22.3111 27.3435 20.9653L29.3507 21.6389V21.6392C30.3995 21.9803 31.2795 22.7077 31.8115 23.6737L34.8772 29.1729L31.7291 32.3348L30.7665 31.7987L30.6153 29.3517H30.6157C30.586 28.8311 30.2811 28.3657 29.8154 28.131C29.35 27.8962 28.7945 27.9276 28.3582 28.2135C27.9222 28.4993 27.6716 28.9961 27.7012 29.5167L28.3748 41.0652L16.7441 41.0649L17.4177 29.5164V29.5167C17.4442 29.1276 17.3134 28.7444 17.0552 28.4524C16.7969 28.1606 16.4324 27.9842 16.043 27.9632L16.0427 27.9632Z" fill="#2C9AFF"/>
<path d="M9.36169 8.79907C9.75181 8.79907 10.126 8.64406 10.4019 8.36822C10.6778 8.09238 10.8328 7.71815 10.8328 7.328C10.8328 6.93789 10.6778 6.56367 10.4019 6.28778C10.1261 6.0119 9.75184 5.85693 9.36169 5.85693C8.97158 5.85693 8.59736 6.01194 8.32147 6.28778C8.04563 6.56362 7.89062 6.93785 7.89062 7.328C7.89062 7.71812 8.04563 8.09234 8.32147 8.36822C8.59731 8.64406 8.97154 8.79907 9.36169 8.79907Z" fill="#2C9AFF"/>
<path d="M15.2309 8.79907C15.621 8.79907 15.9952 8.64406 16.2711 8.36822C16.547 8.09238 16.702 7.71815 16.702 7.328C16.702 6.93789 16.547 6.56367 16.2711 6.28778C15.9953 6.0119 15.6211 5.85693 15.2309 5.85693C14.8408 5.85693 14.4666 6.01194 14.1907 6.28778C13.9148 6.56362 13.7598 6.93785 13.7598 7.328C13.756 7.71915 13.91 8.09545 14.1865 8.37229C14.4631 8.64882 14.8394 8.80245 15.2308 8.79899L15.2309 8.79907Z" fill="#2C9AFF"/>
</svg>
